<svg xmlns="http://www.w3.org/2000/svg" xmlns:xlink="http://www.w3.org/1999/xlink" width="1080" viewBox="0 0 810 809.999993" height="1080" preserveAspectRatio="xMidYMid meet"><defs><clipPath id="d904a4cfc2"><path d="M 405 0 C 181.324219 0 0 181.324219 0 405 C 0 628.675781 181.324219 810 405 810 C 628.675781 810 810 628.675781 810 405 C 810 181.324219 628.675781 0 405 0 Z M 405 0 " clip-rule="nonzero"></path></clipPath><clipPath id="43f6a66a84"><path d="M 0 0 L 810 0 L 810 810 L 0 810 Z M 0 0 " clip-rule="nonzero"></path></clipPath><clipPath id="a0b66acb0c"><path d="M 405 0 C 181.324219 0 0 181.324219 0 405 C 0 628.675781 181.324219 810 405 810 C 628.675781 810 810 628.675781 810 405 C 810 181.324219 628.675781 0 405 0 Z M 405 0 " clip-rule="nonzero"></path></clipPath><clipPath id="1b2b881cdb"><rect x="0" width="810" y="0" height="810"></rect></clipPath><clipPath id="c63360d777"><path d="M 204 164 L 607 164 L 607 665.617188 L 204 665.617188 Z M 204 164 " clip-rule="nonzero"></path></clipPath></defs><g clip-path="url(#d904a4cfc2)"><g transform="matrix(1, 0, 0, 1, 0, 0.000000000000039746)"><g clip-path="url(#1b2b881cdb)"><g clip-path="url(#43f6a66a84)"><g clip-path="url(#a0b66acb0c)"><rect x="-178.2" width="1166.4" fill="#b3b8a6" height="1166.39999" y="-178.199998" fill-opacity="1"></rect></g></g></g></g></g><g clip-path="url(#c63360d777)"><path fill="#ffffff" d="M 606.035156 354.445312 C 605.726562 348.308594 605.132812 342.199219 604.261719 336.117188 C 603.386719 330.035156 602.238281 324.007812 600.8125 318.03125 C 599.382812 312.054688 597.683594 306.15625 595.714844 300.335938 C 593.746094 294.515625 591.511719 288.796875 589.015625 283.183594 C 586.519531 277.566406 583.769531 272.078125 580.769531 266.71875 C 577.769531 261.355469 574.527344 256.140625 571.046875 251.078125 C 567.566406 246.015625 563.863281 241.121094 559.929688 236.398438 C 556 231.675781 551.863281 227.144531 547.515625 222.800781 C 469.253906 144.546875 341.921875 144.542969 263.667969 222.800781 C 261.496094 224.972656 259.375 227.191406 257.308594 229.460938 C 255.238281 231.730469 253.222656 234.042969 251.257812 236.40625 C 249.296875 238.765625 247.386719 241.171875 245.535156 243.621094 C 243.683594 246.066406 241.886719 248.558594 240.148438 251.089844 C 238.410156 253.621094 236.730469 256.1875 235.109375 258.796875 C 233.488281 261.40625 231.929688 264.046875 230.429688 266.726562 C 228.933594 269.40625 227.496094 272.121094 226.121094 274.867188 C 224.746094 277.609375 223.433594 280.386719 222.1875 283.191406 C 220.941406 286 219.757812 288.832031 218.640625 291.691406 C 217.523438 294.550781 216.472656 297.433594 215.488281 300.34375 C 214.503906 303.25 213.585938 306.179688 212.734375 309.128906 C 211.882812 312.082031 211.101562 315.050781 210.386719 318.035156 C 209.671875 321.023438 209.027344 324.023438 208.453125 327.039062 C 207.875 330.054688 207.367188 333.082031 206.929688 336.121094 C 206.492188 339.160156 206.125 342.207031 205.828125 345.261719 C 205.53125 348.320312 205.300781 351.378906 205.144531 354.445312 C 204.988281 357.511719 204.902344 360.582031 204.882812 363.652344 C 204.867188 366.722656 204.921875 369.792969 205.046875 372.859375 C 205.171875 375.925781 205.367188 378.992188 205.632812 382.050781 C 205.894531 385.109375 206.230469 388.160156 206.636719 391.203125 C 207.042969 394.246094 207.515625 397.28125 208.058594 400.300781 C 208.605469 403.324219 209.21875 406.332031 209.898438 409.324219 C 210.582031 412.316406 211.332031 415.292969 212.152344 418.253906 C 212.96875 421.210938 213.855469 424.152344 214.8125 427.070312 C 215.765625 429.988281 216.785156 432.882812 217.871094 435.753906 C 218.957031 438.628906 220.109375 441.472656 221.328125 444.292969 C 222.542969 447.109375 223.824219 449.898438 225.171875 452.660156 C 226.515625 455.417969 227.921875 458.148438 229.394531 460.84375 C 230.863281 463.539062 232.394531 466.199219 233.988281 468.824219 C 235.582031 471.449219 237.234375 474.035156 238.945312 476.585938 C 240.65625 479.132812 242.421875 481.644531 244.25 484.113281 C 246.078125 486.578125 247.957031 489.003906 249.894531 491.386719 L 382.652344 654.570312 C 383.34375 655.417969 384.078125 656.226562 384.859375 656.996094 C 385.640625 657.761719 386.460938 658.484375 387.320312 659.160156 C 388.183594 659.835938 389.078125 660.464844 390.011719 661.042969 C 390.941406 661.617188 391.902344 662.140625 392.890625 662.613281 C 393.878906 663.082031 394.890625 663.496094 395.925781 663.855469 C 396.960938 664.210938 398.011719 664.511719 399.082031 664.753906 C 400.148438 664.996094 401.226562 665.175781 402.316406 665.296875 C 403.402344 665.417969 404.496094 665.480469 405.589844 665.480469 C 406.6875 665.480469 407.777344 665.417969 408.867188 665.296875 C 409.953125 665.175781 411.03125 664.996094 412.101562 664.753906 C 413.167969 664.511719 414.21875 664.210938 415.253906 663.855469 C 416.289062 663.496094 417.300781 663.082031 418.292969 662.613281 C 419.28125 662.140625 420.242188 661.617188 421.171875 661.042969 C 422.101562 660.464844 422.996094 659.835938 423.859375 659.160156 C 424.71875 658.484375 425.542969 657.761719 426.324219 656.996094 C 427.101562 656.226562 427.839844 655.417969 428.53125 654.570312 L 561.285156 491.386719 C 565.167969 486.621094 568.820312 481.691406 572.246094 476.589844 C 575.675781 471.492188 578.859375 466.242188 581.804688 460.851562 C 584.75 455.457031 587.4375 449.941406 589.875 444.300781 C 592.3125 438.660156 594.484375 432.917969 596.394531 427.078125 C 598.304688 421.238281 599.9375 415.320312 601.304688 409.328125 C 602.667969 403.339844 603.753906 397.296875 604.5625 391.207031 C 605.371094 385.113281 605.898438 379 606.144531 372.859375 C 606.390625 366.71875 606.355469 360.582031 606.035156 354.445312 Z M 548.589844 481.058594 L 415.835938 644.242188 C 415.527344 644.621094 415.199219 644.984375 414.851562 645.324219 C 414.5 645.667969 414.136719 645.992188 413.75 646.292969 C 413.367188 646.597656 412.964844 646.875 412.550781 647.132812 C 412.132812 647.390625 411.707031 647.625 411.261719 647.835938 C 410.820312 648.046875 410.371094 648.230469 409.90625 648.390625 C 409.445312 648.550781 408.976562 648.683594 408.5 648.792969 C 408.019531 648.898438 407.539062 648.980469 407.054688 649.035156 C 406.566406 649.089844 406.078125 649.117188 405.589844 649.117188 C 405.101562 649.117188 404.613281 649.089844 404.128906 649.035156 C 403.640625 648.980469 403.160156 648.898438 402.683594 648.792969 C 402.207031 648.683594 401.734375 648.550781 401.273438 648.390625 C 400.8125 648.230469 400.359375 648.046875 399.917969 647.835938 C 399.476562 647.625 399.046875 647.390625 398.632812 647.132812 C 398.214844 646.875 397.816406 646.597656 397.429688 646.292969 C 397.046875 645.992188 396.679688 645.667969 396.332031 645.324219 C 395.980469 644.984375 395.652344 644.621094 395.34375 644.242188 L 262.589844 481.058594 C 260.769531 478.820312 259 476.542969 257.289062 474.21875 C 255.574219 471.898438 253.914062 469.539062 252.3125 467.136719 C 250.707031 464.738281 249.164062 462.304688 247.671875 459.832031 C 246.183594 457.359375 244.753906 454.855469 243.382812 452.3125 C 242.011719 449.773438 240.703125 447.207031 239.449219 444.605469 C 238.199219 442.003906 237.011719 439.375 235.886719 436.71875 C 234.757812 434.0625 233.695312 431.378906 232.691406 428.675781 C 231.691406 425.96875 230.753906 423.238281 229.882812 420.488281 C 229.007812 417.738281 228.199219 414.96875 227.457031 412.179688 C 226.714844 409.390625 226.039062 406.585938 225.425781 403.765625 C 224.816406 400.945312 224.269531 398.113281 223.792969 395.269531 C 223.316406 392.421875 222.902344 389.566406 222.558594 386.703125 C 222.214844 383.835938 221.9375 380.964844 221.730469 378.085938 C 221.519531 375.207031 221.378906 372.328125 221.304688 369.441406 C 221.230469 366.558594 221.226562 363.671875 221.285156 360.789062 C 221.347656 357.902344 221.476562 355.019531 221.675781 352.140625 C 221.871094 349.261719 222.136719 346.390625 222.46875 343.523438 C 222.800781 340.65625 223.199219 337.800781 223.664062 334.949219 C 224.128906 332.101562 224.664062 329.269531 225.261719 326.445312 C 225.863281 323.621094 226.527344 320.816406 227.257812 318.023438 C 227.988281 315.230469 228.785156 312.457031 229.644531 309.703125 C 230.507812 306.949219 231.433594 304.21875 232.421875 301.507812 C 233.410156 298.796875 234.464844 296.109375 235.582031 293.449219 C 236.695312 290.789062 237.875 288.152344 239.113281 285.546875 C 240.351562 282.941406 241.652344 280.367188 243.011719 277.820312 C 244.371094 275.277344 245.792969 272.765625 247.269531 270.285156 C 248.75 267.808594 250.285156 265.367188 251.878906 262.960938 C 253.46875 260.554688 255.117188 258.1875 256.824219 255.855469 C 258.527344 253.527344 260.285156 251.242188 262.097656 248.996094 C 263.90625 246.75 265.769531 244.546875 267.6875 242.386719 C 269.601562 240.230469 271.566406 238.117188 273.582031 236.050781 C 275.59375 233.984375 277.65625 231.964844 279.765625 229.996094 C 281.875 228.027344 284.027344 226.105469 286.226562 224.238281 C 288.425781 222.371094 290.667969 220.554688 292.953125 218.789062 C 295.238281 217.027344 297.5625 215.320312 299.925781 213.664062 C 302.289062 212.011719 304.691406 210.414062 307.132812 208.871094 C 309.574219 207.332031 312.046875 205.847656 314.554688 204.421875 C 317.066406 202.996094 319.605469 201.632812 322.179688 200.328125 C 324.753906 199.019531 327.355469 197.777344 329.988281 196.59375 C 332.621094 195.410156 335.277344 194.289062 337.964844 193.230469 C 340.648438 192.171875 343.355469 191.175781 346.085938 190.246094 C 348.816406 189.3125 351.570312 188.445312 354.339844 187.644531 C 357.113281 186.839844 359.902344 186.105469 362.710938 185.433594 C 365.515625 184.761719 368.335938 184.15625 371.171875 183.617188 C 374.007812 183.078125 376.851562 182.609375 379.710938 182.203125 C 382.566406 181.796875 385.433594 181.460938 388.304688 181.1875 C 391.179688 180.917969 394.054688 180.714844 396.9375 180.578125 C 399.820312 180.445312 402.703125 180.375 405.589844 180.375 C 408.476562 180.375 411.359375 180.445312 414.242188 180.578125 C 417.125 180.714844 420.003906 180.917969 422.875 181.1875 C 425.75 181.460938 428.613281 181.796875 431.472656 182.203125 C 434.328125 182.609375 437.175781 183.078125 440.011719 183.617188 C 442.84375 184.15625 445.664062 184.761719 448.472656 185.433594 C 451.277344 186.105469 454.066406 186.839844 456.839844 187.644531 C 459.613281 188.445312 462.363281 189.3125 465.09375 190.246094 C 467.824219 191.175781 470.535156 192.171875 473.21875 193.230469 C 475.902344 194.289062 478.5625 195.410156 481.191406 196.59375 C 483.824219 197.777344 486.429688 199.019531 489 200.328125 C 491.574219 201.632812 494.117188 202.996094 496.625 204.421875 C 499.132812 205.847656 501.609375 207.332031 504.050781 208.871094 C 506.488281 210.414062 508.890625 212.011719 511.253906 213.664062 C 513.621094 215.320312 515.945312 217.027344 518.230469 218.789062 C 520.511719 220.554688 522.753906 222.371094 524.953125 224.238281 C 527.152344 226.105469 529.308594 228.027344 531.417969 229.996094 C 533.523438 231.964844 535.585938 233.984375 537.601562 236.050781 C 539.617188 238.117188 541.578125 240.230469 543.496094 242.386719 C 545.410156 244.546875 547.273438 246.75 549.085938 248.996094 C 550.898438 251.242188 552.65625 253.527344 554.359375 255.859375 C 556.0625 258.1875 557.710938 260.554688 559.304688 262.960938 C 560.898438 265.367188 562.433594 267.808594 563.910156 270.285156 C 565.390625 272.765625 566.808594 275.277344 568.167969 277.820312 C 569.53125 280.367188 570.828125 282.941406 572.070312 285.546875 C 573.308594 288.152344 574.484375 290.789062 575.601562 293.449219 C 576.71875 296.109375 577.769531 298.796875 578.757812 301.507812 C 579.75 304.21875 580.675781 306.949219 581.535156 309.703125 C 582.398438 312.460938 583.191406 315.230469 583.921875 318.023438 C 584.65625 320.816406 585.320312 323.621094 585.917969 326.445312 C 586.519531 329.269531 587.050781 332.101562 587.515625 334.953125 C 587.984375 337.800781 588.382812 340.65625 588.714844 343.523438 C 589.046875 346.390625 589.308594 349.261719 589.507812 352.140625 C 589.703125 355.019531 589.832031 357.902344 589.894531 360.789062 C 589.957031 363.671875 589.949219 366.558594 589.875 369.441406 C 589.800781 372.328125 589.660156 375.207031 589.453125 378.085938 C 589.242188 380.964844 588.964844 383.835938 588.621094 386.703125 C 588.277344 389.566406 587.867188 392.421875 587.386719 395.269531 C 586.910156 398.113281 586.367188 400.945312 585.753906 403.765625 C 585.144531 406.585938 584.464844 409.390625 583.722656 412.179688 C 582.980469 414.96875 582.171875 417.738281 581.300781 420.488281 C 580.425781 423.238281 579.488281 425.96875 578.488281 428.675781 C 577.488281 431.378906 576.421875 434.0625 575.296875 436.71875 C 574.167969 439.375 572.980469 442.003906 571.730469 444.605469 C 570.480469 447.207031 569.167969 449.773438 567.796875 452.3125 C 566.425781 454.855469 564.996094 457.359375 563.507812 459.832031 C 562.019531 462.304688 560.472656 464.738281 558.871094 467.136719 C 557.265625 469.539062 555.609375 471.898438 553.894531 474.21875 C 552.179688 476.542969 550.414062 478.820312 548.589844 481.058594 Z M 548.589844 481.058594 " fill-opacity="1" fill-rule="nonzero"></path></g><path fill="#ffffff" d="M 524.566406 302 C 512.207031 280.132812 491.035156 265.800781 467.871094 263.628906 C 445.636719 261.550781 423.796875 270.515625 405.554688 289.015625 C 381.664062 264.789062 351.730469 257.054688 324.007812 268.398438 C 291.851562 281.554688 272.335938 316.648438 275.457031 355.730469 C 275.902344 360.851562 276.851562 365.875 278.300781 370.808594 L 279.605469 375.390625 C 280.273438 377.800781 281.058594 380.171875 281.96875 382.507812 C 297.488281 421.65625 335.445312 457.890625 401.421875 496.539062 C 402.046875 496.90625 402.710938 497.183594 403.410156 497.375 C 404.109375 497.5625 404.820312 497.660156 405.546875 497.660156 C 406.269531 497.660156 406.984375 497.566406 407.683594 497.378906 C 408.382812 497.191406 409.046875 496.914062 409.675781 496.550781 C 485.25 452.535156 524.941406 410.574219 534.585938 364.496094 C 534.613281 364.375 534.632812 364.257812 534.652344 364.136719 C 535.652344 358.078125 536.117188 351.976562 536.050781 345.835938 C 536.046875 345.675781 536.042969 345.519531 536.03125 345.359375 C 534.617188 325.367188 530.972656 311.574219 524.566406 302 Z M 518.535156 361.320312 C 510.121094 401.109375 473.144531 439.957031 405.570312 479.984375 C 346.253906 444.664062 310.777344 410.773438 297.179688 376.472656 C 296.472656 374.648438 295.859375 372.792969 295.34375 370.910156 L 294.039062 366.328125 C 292.886719 362.4375 292.128906 358.46875 291.765625 354.429688 C 288.824219 317.527344 308.949219 292.238281 330.203125 283.542969 C 336.34375 281.007812 342.734375 279.734375 349.378906 279.726562 C 366.953125 279.726562 384.683594 288.992188 399.285156 306.429688 C 399.667969 306.890625 400.097656 307.300781 400.570312 307.667969 C 401.046875 308.03125 401.554688 308.339844 402.09375 308.59375 C 402.636719 308.84375 403.199219 309.035156 403.785156 309.167969 C 404.367188 309.296875 404.957031 309.359375 405.558594 309.359375 C 406.15625 309.359375 406.746094 309.296875 407.328125 309.167969 C 407.914062 309.035156 408.476562 308.84375 409.019531 308.59375 C 409.558594 308.339844 410.070312 308.03125 410.542969 307.667969 C 411.015625 307.300781 411.445312 306.890625 411.828125 306.429688 C 427.65625 287.527344 447.007812 278.109375 466.347656 279.921875 C 484.261719 281.597656 500.75 292.953125 510.457031 310.296875 C 510.574219 310.507812 510.703125 310.710938 510.835938 310.910156 C 515.515625 317.773438 518.496094 329.671875 519.691406 346.277344 C 519.730469 351.324219 519.34375 356.335938 518.535156 361.320312 Z M 518.535156 361.320312 " fill-opacity="1" fill-rule="nonzero"></path></svg>