<svg xmlns="http://www.w3.org/2000/svg" xmlns:xlink="http://www.w3.org/1999/xlink" width="1080" viewBox="0 0 810 809.999993" height="1080" preserveAspectRatio="xMidYMid meet"><defs><clipPath id="90f31375c2"><path d="M 405 0 C 181.324219 0 0 181.324219 0 405 C 0 628.675781 181.324219 810 405 810 C 628.675781 810 810 628.675781 810 405 C 810 181.324219 628.675781 0 405 0 Z M 405 0 " clip-rule="nonzero"></path></clipPath><clipPath id="e92c130b53"><path d="M 0 0 L 810 0 L 810 810 L 0 810 Z M 0 0 " clip-rule="nonzero"></path></clipPath><clipPath id="f3600f3b59"><path d="M 405 0 C 181.324219 0 0 181.324219 0 405 C 0 628.675781 181.324219 810 405 810 C 628.675781 810 810 628.675781 810 405 C 810 181.324219 628.675781 0 405 0 Z M 405 0 " clip-rule="nonzero"></path></clipPath><clipPath id="def976f6e5"><rect x="0" width="810" y="0" height="810"></rect></clipPath><clipPath id="37f2b84fdc"><path d="M 227 318 L 582 318 L 582 619.554688 L 227 619.554688 Z M 227 318 " clip-rule="nonzero"></path></clipPath><clipPath id="84064bb378"><path d="M 373 152.304688 L 437 152.304688 L 437 275 L 373 275 Z M 373 152.304688 " clip-rule="nonzero"></path></clipPath><clipPath id="def4ecb63d"><path d="M 213.929688 258 L 596 258 L 596 335 L 213.929688 335 Z M 213.929688 258 " clip-rule="nonzero"></path></clipPath></defs><g clip-path="url(#90f31375c2)"><g transform="matrix(1, 0, 0, 1, 0, 0.000000000000039746)"><g clip-path="url(#def976f6e5)"><g clip-path="url(#e92c130b53)"><g clip-path="url(#f3600f3b59)"><rect x="-178.2" width="1166.4" fill="#b3b8a6" height="1166.39999" y="-178.199998" fill-opacity="1"></rect></g></g></g></g></g><path fill="#ffffff" d="M 347.824219 544.25 C 346.671875 544.246094 345.574219 544.011719 344.523438 543.539062 C 343.476562 543.0625 342.570312 542.394531 341.808594 541.53125 L 280.976562 472.472656 C 265.3125 454.683594 265.3125 425.738281 280.976562 407.949219 C 288.894531 398.988281 299.46875 394.039062 310.742188 394.039062 C 322.015625 394.039062 332.621094 398.96875 340.515625 407.929688 L 342.230469 409.882812 C 342.5625 410.308594 342.9375 410.691406 343.359375 411.03125 C 343.777344 411.371094 344.230469 411.660156 344.714844 411.898438 C 345.199219 412.136719 345.703125 412.316406 346.230469 412.4375 C 346.753906 412.558594 347.289062 412.617188 347.828125 412.617188 C 348.367188 412.617188 348.902344 412.558594 349.425781 412.4375 C 349.953125 412.316406 350.457031 412.136719 350.941406 411.898438 C 351.429688 411.660156 351.878906 411.371094 352.300781 411.03125 C 352.71875 410.691406 353.09375 410.308594 353.425781 409.882812 L 355.148438 407.878906 C 363.066406 398.988281 373.640625 394.039062 384.90625 394.039062 C 396.167969 394.039062 406.78125 398.96875 414.667969 407.929688 C 430.34375 425.71875 430.34375 454.660156 414.667969 472.449219 L 353.835938 541.53125 C 353.074219 542.394531 352.171875 543.0625 351.121094 543.539062 C 350.074219 544.011719 348.972656 544.246094 347.824219 544.25 Z M 310.742188 410.074219 C 309.046875 410.101562 307.375 410.304688 305.726562 410.691406 C 304.074219 411.078125 302.484375 411.636719 300.957031 412.363281 C 299.425781 413.09375 297.992188 413.976562 296.652344 415.015625 C 295.3125 416.054688 294.101562 417.222656 293.011719 418.523438 C 282.492188 430.46875 282.492188 449.902344 293.011719 461.847656 L 347.832031 524.082031 L 402.644531 461.847656 C 413.167969 449.902344 413.167969 430.46875 402.644531 418.523438 C 402.109375 417.867188 401.542969 417.238281 400.9375 416.644531 C 400.335938 416.050781 399.703125 415.492188 399.035156 414.96875 C 398.371094 414.445312 397.679688 413.960938 396.960938 413.511719 C 396.238281 413.066406 395.496094 412.660156 394.734375 412.296875 C 393.96875 411.933594 393.1875 411.609375 392.386719 411.335938 C 391.585938 411.058594 390.773438 410.824219 389.949219 410.636719 C 389.121094 410.453125 388.289062 410.3125 387.445312 410.21875 C 386.605469 410.125 385.761719 410.078125 384.914062 410.078125 C 384.066406 410.078125 383.222656 410.125 382.382812 410.21875 C 381.539062 410.3125 380.707031 410.453125 379.882812 410.636719 C 379.054688 410.824219 378.242188 411.058594 377.441406 411.335938 C 376.640625 411.609375 375.859375 411.933594 375.09375 412.296875 C 374.332031 412.660156 373.589844 413.066406 372.871094 413.511719 C 372.152344 413.960938 371.457031 414.445312 370.792969 414.96875 C 370.128906 415.492188 369.492188 416.050781 368.890625 416.644531 C 368.289062 417.238281 367.71875 417.867188 367.1875 418.523438 L 365.460938 420.476562 C 364.375 421.753906 363.160156 422.902344 361.824219 423.917969 C 360.488281 424.933594 359.058594 425.792969 357.539062 426.5 C 356.015625 427.210938 354.4375 427.746094 352.796875 428.113281 C 351.160156 428.480469 349.5 428.667969 347.824219 428.675781 C 346.148438 428.667969 344.488281 428.480469 342.851562 428.117188 C 341.214844 427.753906 339.636719 427.21875 338.117188 426.511719 C 336.59375 425.804688 335.167969 424.945312 333.832031 423.933594 C 332.496094 422.917969 331.28125 421.773438 330.195312 420.496094 L 328.472656 418.542969 C 327.386719 417.242188 326.171875 416.070312 324.832031 415.03125 C 323.496094 413.988281 322.0625 413.105469 320.53125 412.375 C 319 411.640625 317.410156 411.082031 315.761719 410.695312 C 314.109375 410.308594 312.4375 410.101562 310.742188 410.074219 Z M 310.742188 410.074219 " fill-opacity="1" fill-rule="nonzero"></path><path fill="#ffffff" d="M 462.074219 544.25 C 460.921875 544.246094 459.824219 544.011719 458.773438 543.539062 C 457.726562 543.0625 456.820312 542.394531 456.058594 541.53125 L 398.933594 476.71875 C 398.609375 476.324219 398.320312 475.898438 398.074219 475.445312 C 397.828125 474.992188 397.628906 474.519531 397.472656 474.027344 C 397.320312 473.535156 397.214844 473.035156 397.15625 472.523438 C 397.097656 472.007812 397.089844 471.496094 397.128906 470.984375 C 397.171875 470.46875 397.261719 469.964844 397.398438 469.46875 C 397.539062 468.972656 397.722656 468.492188 397.953125 468.03125 C 398.183594 467.570312 398.457031 467.136719 398.769531 466.726562 C 399.085938 466.320312 399.4375 465.945312 399.824219 465.605469 C 400.210938 465.265625 400.625 464.964844 401.070312 464.703125 C 401.515625 464.441406 401.980469 464.226562 402.464844 464.054688 C 402.953125 463.886719 403.449219 463.761719 403.960938 463.6875 C 404.46875 463.613281 404.984375 463.585938 405.496094 463.613281 C 406.011719 463.636719 406.519531 463.710938 407.019531 463.832031 C 407.523438 463.953125 408.007812 464.121094 408.472656 464.335938 C 408.941406 464.554688 409.386719 464.8125 409.804688 465.113281 C 410.222656 465.414062 410.609375 465.75 410.960938 466.128906 L 462.074219 524.105469 L 516.894531 461.867188 C 527.417969 449.921875 527.417969 430.488281 516.894531 418.542969 C 516.359375 417.886719 515.792969 417.257812 515.1875 416.664062 C 514.585938 416.070312 513.949219 415.511719 513.285156 414.988281 C 512.621094 414.464844 511.925781 413.980469 511.207031 413.53125 C 510.488281 413.085938 509.746094 412.679688 508.980469 412.316406 C 508.214844 411.953125 507.433594 411.632812 506.632812 411.355469 C 505.832031 411.078125 505.019531 410.84375 504.195312 410.65625 C 503.367188 410.472656 502.535156 410.332031 501.691406 410.238281 C 500.851562 410.144531 500.007812 410.097656 499.160156 410.097656 C 498.3125 410.097656 497.46875 410.144531 496.625 410.238281 C 495.785156 410.332031 494.953125 410.472656 494.125 410.65625 C 493.300781 410.84375 492.484375 411.078125 491.6875 411.355469 C 490.886719 411.632812 490.101562 411.953125 489.339844 412.316406 C 488.574219 412.679688 487.832031 413.085938 487.113281 413.53125 C 486.394531 413.980469 485.699219 414.464844 485.035156 414.988281 C 484.371094 415.511719 483.734375 416.070312 483.132812 416.664062 C 482.527344 417.257812 481.960938 417.886719 481.425781 418.542969 L 479.691406 420.546875 C 479.152344 421.1875 478.582031 421.796875 477.976562 422.371094 C 477.367188 422.949219 476.734375 423.492188 476.070312 424 C 475.40625 424.507812 474.714844 424.980469 474 425.414062 C 473.28125 425.847656 472.542969 426.238281 471.785156 426.59375 C 471.027344 426.945312 470.25 427.253906 469.460938 427.523438 C 468.667969 427.792969 467.863281 428.015625 467.042969 428.195312 C 466.226562 428.378906 465.402344 428.511719 464.570312 428.605469 C 463.738281 428.695312 462.90625 428.742188 462.070312 428.742188 C 461.230469 428.742188 460.398438 428.695312 459.566406 428.605469 C 458.734375 428.511719 457.910156 428.378906 457.09375 428.195312 C 456.273438 428.015625 455.46875 427.792969 454.679688 427.523438 C 453.886719 427.253906 453.109375 426.945312 452.351562 426.59375 C 451.59375 426.238281 450.855469 425.847656 450.140625 425.414062 C 449.421875 424.980469 448.734375 424.507812 448.066406 424 C 447.402344 423.492188 446.769531 422.949219 446.164062 422.371094 C 445.558594 421.796875 444.984375 421.1875 444.445312 420.546875 L 442.730469 418.601562 C 433.839844 408.519531 420.152344 407.316406 410.160156 415.746094 C 409.753906 416.070312 409.324219 416.351562 408.867188 416.59375 C 408.40625 416.832031 407.929688 417.027344 407.433594 417.175781 C 406.9375 417.324219 406.429688 417.421875 405.914062 417.472656 C 405.402344 417.519531 404.886719 417.519531 404.371094 417.46875 C 403.855469 417.421875 403.347656 417.320312 402.851562 417.171875 C 402.355469 417.023438 401.878906 416.832031 401.421875 416.589844 C 400.960938 416.347656 400.53125 416.066406 400.128906 415.742188 C 399.722656 415.417969 399.355469 415.058594 399.019531 414.664062 C 398.6875 414.269531 398.394531 413.84375 398.140625 413.390625 C 397.890625 412.9375 397.683594 412.46875 397.523438 411.972656 C 397.363281 411.480469 397.25 410.980469 397.1875 410.464844 C 397.125 409.953125 397.113281 409.4375 397.148438 408.917969 C 397.1875 408.402344 397.273438 407.894531 397.40625 407.394531 C 397.542969 406.894531 397.722656 406.414062 397.953125 405.949219 C 398.183594 405.484375 398.453125 405.046875 398.765625 404.632812 C 399.082031 404.222656 399.429688 403.84375 399.816406 403.5 C 416.484375 389.46875 440.09375 391.363281 454.757812 408 L 456.472656 409.933594 C 456.800781 410.363281 457.175781 410.746094 457.59375 411.085938 C 458.015625 411.429688 458.464844 411.71875 458.949219 411.957031 C 459.4375 412.195312 459.941406 412.375 460.46875 412.496094 C 460.996094 412.621094 461.527344 412.679688 462.070312 412.679688 C 462.609375 412.679688 463.140625 412.621094 463.667969 412.496094 C 464.195312 412.375 464.699219 412.195312 465.1875 411.957031 C 465.671875 411.71875 466.125 411.429688 466.542969 411.085938 C 466.960938 410.746094 467.335938 410.363281 467.664062 409.933594 L 469.398438 407.929688 C 477.238281 398.988281 487.808594 394.039062 499.15625 394.039062 C 510.5 394.039062 521.03125 398.96875 528.921875 407.929688 C 544.585938 425.71875 544.585938 454.660156 528.921875 472.449219 L 468.085938 541.53125 C 467.324219 542.394531 466.421875 543.0625 465.371094 543.539062 C 464.324219 544.011719 463.222656 544.246094 462.074219 544.25 Z M 462.074219 544.25 " fill-opacity="1" fill-rule="nonzero"></path><g clip-path="url(#37f2b84fdc)"><path fill="#ffffff" d="M 573.898438 619.53125 L 236 619.53125 C 235.472656 619.53125 234.949219 619.480469 234.433594 619.378906 C 233.917969 619.277344 233.417969 619.125 232.929688 618.921875 C 232.445312 618.722656 231.980469 618.472656 231.542969 618.183594 C 231.105469 617.890625 230.703125 617.558594 230.328125 617.183594 C 229.957031 616.8125 229.625 616.40625 229.332031 615.96875 C 229.039062 615.53125 228.792969 615.070312 228.589844 614.582031 C 228.390625 614.097656 228.238281 613.597656 228.136719 613.078125 C 228.03125 612.5625 227.980469 612.042969 227.980469 611.515625 L 227.980469 326.792969 C 227.980469 326.265625 228.03125 325.742188 228.136719 325.226562 C 228.238281 324.710938 228.390625 324.210938 228.589844 323.722656 C 228.792969 323.238281 229.039062 322.773438 229.332031 322.335938 C 229.625 321.898438 229.957031 321.496094 230.328125 321.121094 C 230.703125 320.75 231.105469 320.417969 231.542969 320.125 C 231.980469 319.832031 232.445312 319.585938 232.929688 319.382812 C 233.417969 319.183594 233.917969 319.03125 234.433594 318.929688 C 234.949219 318.824219 235.472656 318.773438 236 318.773438 L 573.898438 318.773438 C 574.425781 318.773438 574.945312 318.824219 575.460938 318.929688 C 575.980469 319.03125 576.480469 319.183594 576.964844 319.382812 C 577.453125 319.585938 577.914062 319.832031 578.351562 320.125 C 578.789062 320.417969 579.195312 320.75 579.566406 321.121094 C 579.941406 321.496094 580.273438 321.898438 580.566406 322.335938 C 580.855469 322.773438 581.105469 323.238281 581.304688 323.722656 C 581.507812 324.210938 581.660156 324.710938 581.761719 325.226562 C 581.863281 325.742188 581.914062 326.265625 581.914062 326.792969 L 581.914062 611.515625 C 581.914062 612.042969 581.863281 612.5625 581.761719 613.078125 C 581.660156 613.597656 581.507812 614.097656 581.304688 614.582031 C 581.105469 615.070312 580.855469 615.53125 580.566406 615.96875 C 580.273438 616.40625 579.941406 616.8125 579.566406 617.183594 C 579.195312 617.558594 578.789062 617.890625 578.351562 618.183594 C 577.914062 618.472656 577.453125 618.722656 576.964844 618.921875 C 576.480469 619.125 575.980469 619.277344 575.460938 619.378906 C 574.945312 619.480469 574.425781 619.53125 573.898438 619.53125 Z M 244.015625 603.496094 L 565.878906 603.496094 L 565.878906 334.808594 L 244.015625 334.808594 Z M 244.015625 603.496094 " fill-opacity="1" fill-rule="nonzero"></path></g><g clip-path="url(#84064bb378)"><path fill="#ffffff" d="M 404.949219 274.378906 C 403.632812 274.375 402.390625 274.070312 401.222656 273.457031 C 400.058594 272.84375 399.101562 271.992188 398.355469 270.910156 C 397.351562 269.417969 373.089844 233.949219 373.089844 202.578125 C 373.089844 156.117188 397.472656 152.46875 404.949219 152.46875 C 412.425781 152.46875 436.808594 156.078125 436.808594 202.578125 C 436.808594 233.949219 412.574219 269.417969 411.542969 270.910156 C 410.796875 271.992188 409.839844 272.84375 408.671875 273.457031 C 407.507812 274.070312 406.265625 274.375 404.949219 274.378906 Z M 404.949219 168.546875 C 395.1875 168.546875 389.125 181.574219 389.125 202.621094 C 389.125 219.65625 398.324219 239.160156 404.9375 250.996094 C 411.5625 239.140625 420.773438 219.585938 420.773438 202.621094 C 420.773438 181.574219 414.710938 168.546875 404.949219 168.546875 Z M 404.949219 168.546875 " fill-opacity="1" fill-rule="nonzero"></path></g><path fill="#ffffff" d="M 404.949219 274.378906 C 404.453125 274.378906 403.960938 274.332031 403.472656 274.242188 C 402.984375 274.148438 402.511719 274.015625 402.046875 273.835938 C 401.585938 273.65625 401.144531 273.4375 400.722656 273.175781 C 400.300781 272.914062 399.90625 272.613281 399.539062 272.28125 C 399.171875 271.945312 398.839844 271.582031 398.542969 271.183594 C 398.242188 270.789062 397.984375 270.367188 397.761719 269.925781 C 397.542969 269.480469 397.363281 269.019531 397.230469 268.542969 C 397.09375 268.0625 397.003906 267.578125 396.960938 267.085938 C 396.914062 266.589844 396.917969 266.097656 396.964844 265.601562 C 397.011719 265.109375 397.101562 264.621094 397.238281 264.144531 C 397.375 263.667969 397.554688 263.210938 397.777344 262.765625 C 398 262.324219 398.261719 261.902344 398.5625 261.507812 C 398.863281 261.113281 399.195312 260.75 399.5625 260.417969 C 399.929688 260.082031 400.328125 259.785156 400.75 259.527344 C 401.171875 259.269531 401.613281 259.050781 402.078125 258.871094 C 402.542969 258.695312 403.015625 258.5625 403.503906 258.472656 C 403.894531 258.402344 442.589844 251.074219 461.25 232.414062 C 476.105469 217.652344 481.015625 204.09375 474.101562 197.1875 C 467.183594 190.28125 453.683594 195.183594 438.84375 210.066406 C 437.347656 211.574219 435.949219 213.164062 434.644531 214.835938 C 434.320312 215.253906 433.957031 215.632812 433.558594 215.976562 C 433.160156 216.324219 432.734375 216.625 432.273438 216.886719 C 431.816406 217.144531 431.335938 217.359375 430.835938 217.527344 C 430.335938 217.691406 429.824219 217.808594 429.300781 217.871094 C 428.78125 217.9375 428.253906 217.949219 427.730469 217.914062 C 427.203125 217.875 426.6875 217.785156 426.179688 217.644531 C 425.671875 217.503906 425.179688 217.316406 424.710938 217.082031 C 424.238281 216.84375 423.796875 216.5625 423.378906 216.238281 C 422.964844 215.914062 422.585938 215.554688 422.238281 215.15625 C 421.894531 214.757812 421.59375 214.328125 421.332031 213.871094 C 421.074219 213.410156 420.859375 212.933594 420.695312 212.429688 C 420.527344 211.929688 420.414062 211.417969 420.347656 210.894531 C 420.285156 210.375 420.269531 209.847656 420.308594 209.324219 C 420.347656 208.796875 420.4375 208.28125 420.578125 207.773438 C 420.71875 207.265625 420.90625 206.777344 421.144531 206.304688 C 421.382812 205.832031 421.660156 205.390625 421.984375 204.976562 C 423.6875 202.78125 425.519531 200.699219 427.476562 198.730469 C 460.359375 165.890625 480.164062 180.570312 485.453125 185.851562 C 490.746094 191.136719 505.417969 210.90625 472.578125 243.789062 C 450.398438 265.96875 408.175781 273.917969 406.433594 274.246094 C 405.941406 274.335938 405.445312 274.378906 404.949219 274.378906 Z M 404.949219 274.378906 " fill-opacity="1" fill-rule="nonzero"></path><path fill="#ffffff" d="M 404.949219 274.378906 C 404.460938 274.378906 403.976562 274.335938 403.496094 274.246094 C 401.710938 273.917969 359.488281 265.96875 337.351562 243.800781 C 304.476562 210.9375 319.160156 191.144531 324.441406 185.851562 C 329.722656 180.5625 349.496094 165.890625 382.390625 198.730469 C 384.359375 200.699219 386.199219 202.777344 387.910156 204.976562 C 388.25 205.386719 388.546875 205.832031 388.796875 206.304688 C 389.046875 206.777344 389.25 207.269531 389.402344 207.78125 C 389.554688 208.292969 389.65625 208.816406 389.703125 209.351562 C 389.75 209.882812 389.746094 210.414062 389.683594 210.945312 C 389.625 211.476562 389.515625 212 389.351562 212.507812 C 389.191406 213.019531 388.976562 213.507812 388.71875 213.972656 C 388.457031 214.441406 388.152344 214.878906 387.804688 215.28125 C 387.457031 215.6875 387.070312 216.058594 386.648438 216.386719 C 386.226562 216.714844 385.777344 217 385.296875 217.238281 C 384.820312 217.476562 384.324219 217.667969 383.804688 217.804688 C 383.289062 217.945312 382.765625 218.03125 382.230469 218.066406 C 381.695312 218.101562 381.164062 218.082031 380.632812 218.007812 C 380.105469 217.9375 379.585938 217.8125 379.082031 217.636719 C 378.578125 217.460938 378.09375 217.238281 377.632812 216.964844 C 377.171875 216.691406 376.746094 216.378906 376.347656 216.019531 C 375.949219 215.660156 375.59375 215.265625 375.273438 214.835938 C 373.96875 213.164062 372.570312 211.574219 371.074219 210.066406 C 356.203125 195.222656 342.683594 190.292969 335.796875 197.1875 C 328.910156 204.082031 333.792969 217.652344 348.664062 232.457031 C 367.347656 251.136719 406 258.402344 406.390625 258.511719 C 406.871094 258.613281 407.332031 258.753906 407.785156 258.9375 C 408.238281 259.121094 408.667969 259.34375 409.078125 259.609375 C 409.492188 259.871094 409.875 260.167969 410.230469 260.503906 C 410.585938 260.835938 410.910156 261.199219 411.203125 261.589844 C 411.492188 261.980469 411.746094 262.398438 411.957031 262.835938 C 412.171875 263.273438 412.347656 263.726562 412.476562 264.195312 C 412.609375 264.667969 412.699219 265.144531 412.742188 265.628906 C 412.785156 266.117188 412.789062 266.601562 412.742188 267.089844 C 412.699219 267.574219 412.609375 268.050781 412.480469 268.523438 C 412.347656 268.992188 412.175781 269.445312 411.960938 269.882812 C 411.746094 270.320312 411.496094 270.738281 411.203125 271.128906 C 410.914062 271.523438 410.589844 271.882812 410.234375 272.21875 C 409.878906 272.550781 409.496094 272.847656 409.082031 273.113281 C 408.671875 273.375 408.242188 273.597656 407.789062 273.785156 C 407.339844 273.96875 406.875 274.109375 406.394531 274.210938 C 405.917969 274.308594 405.4375 274.367188 404.949219 274.378906 Z M 404.949219 274.378906 " fill-opacity="1" fill-rule="nonzero"></path><g clip-path="url(#def4ecb63d)"><path fill="#ffffff" d="M 587.980469 334.808594 L 221.917969 334.808594 C 221.390625 334.808594 220.871094 334.757812 220.355469 334.65625 C 219.835938 334.550781 219.335938 334.402344 218.847656 334.199219 C 218.363281 333.996094 217.902344 333.75 217.464844 333.457031 C 217.027344 333.164062 216.621094 332.832031 216.25 332.460938 C 215.875 332.089844 215.542969 331.683594 215.25 331.246094 C 214.957031 330.808594 214.710938 330.347656 214.511719 329.859375 C 214.308594 329.375 214.15625 328.871094 214.054688 328.355469 C 213.953125 327.839844 213.898438 327.316406 213.898438 326.792969 L 213.898438 266.359375 C 213.898438 265.832031 213.953125 265.3125 214.054688 264.796875 C 214.15625 264.277344 214.308594 263.777344 214.511719 263.292969 C 214.710938 262.804688 214.957031 262.34375 215.25 261.90625 C 215.542969 261.46875 215.875 261.0625 216.25 260.691406 C 216.621094 260.316406 217.027344 259.984375 217.464844 259.691406 C 217.902344 259.402344 218.363281 259.152344 218.847656 258.953125 C 219.335938 258.75 219.835938 258.597656 220.355469 258.496094 C 220.871094 258.394531 221.390625 258.34375 221.917969 258.34375 L 587.980469 258.34375 C 588.503906 258.34375 589.027344 258.394531 589.542969 258.496094 C 590.058594 258.597656 590.5625 258.75 591.046875 258.953125 C 591.535156 259.152344 591.996094 259.402344 592.433594 259.691406 C 592.871094 259.984375 593.277344 260.316406 593.648438 260.691406 C 594.019531 261.0625 594.351562 261.46875 594.644531 261.90625 C 594.9375 262.34375 595.183594 262.804688 595.386719 263.292969 C 595.585938 263.777344 595.738281 264.277344 595.84375 264.796875 C 595.945312 265.3125 595.996094 265.832031 595.996094 266.359375 L 595.996094 326.792969 C 595.996094 327.320312 595.945312 327.839844 595.84375 328.355469 C 595.738281 328.871094 595.589844 329.375 595.386719 329.859375 C 595.183594 330.347656 594.9375 330.808594 594.644531 331.246094 C 594.351562 331.683594 594.019531 332.089844 593.648438 332.460938 C 593.277344 332.832031 592.871094 333.164062 592.433594 333.457031 C 591.996094 333.75 591.535156 333.996094 591.046875 334.199219 C 590.5625 334.402344 590.058594 334.550781 589.542969 334.65625 C 589.027344 334.757812 588.503906 334.808594 587.980469 334.808594 Z M 229.933594 318.773438 L 579.960938 318.773438 L 579.960938 274.378906 L 229.933594 274.378906 Z M 229.933594 318.773438 " fill-opacity="1" fill-rule="nonzero"></path></g></svg>