<svg xmlns="http://www.w3.org/2000/svg" xmlns:xlink="http://www.w3.org/1999/xlink" width="1080" viewBox="0 0 810 809.999993" height="1080" preserveAspectRatio="xMidYMid meet"><defs><clipPath id="e86b5600dd"><path d="M 0 0.789062 L 809.210938 0.789062 L 809.210938 810 L 0 810 Z M 0 0.789062 " clip-rule="nonzero"></path></clipPath><clipPath id="72757f6690"><path d="M 404.605469 0.789062 C 181.148438 0.789062 0 181.9375 0 405.394531 C 0 628.851562 181.148438 810 404.605469 810 C 628.0625 810 809.210938 628.851562 809.210938 405.394531 C 809.210938 181.9375 628.0625 0.789062 404.605469 0.789062 Z M 404.605469 0.789062 " clip-rule="nonzero"></path></clipPath><clipPath id="b67453912d"><path d="M 0 0.789062 L 809.210938 0.789062 L 809.210938 810 L 0 810 Z M 0 0.789062 " clip-rule="nonzero"></path></clipPath><clipPath id="147fc96beb"><path d="M 404.605469 0.789062 C 181.148438 0.789062 0 181.9375 0 405.394531 C 0 628.851562 181.148438 810 404.605469 810 C 628.0625 810 809.210938 628.851562 809.210938 405.394531 C 809.210938 181.9375 628.0625 0.789062 404.605469 0.789062 Z M 404.605469 0.789062 " clip-rule="nonzero"></path></clipPath><clipPath id="ac044a2620"><rect x="0" width="810" y="0" height="810"></rect></clipPath><clipPath id="b9dc6bf562"><path d="M 144.226562 145.015625 L 664.726562 145.015625 L 664.726562 665.515625 L 144.226562 665.515625 Z M 144.226562 145.015625 " clip-rule="nonzero"></path></clipPath></defs><g clip-path="url(#e86b5600dd)"><g clip-path="url(#72757f6690)"><g transform="matrix(1, 0, 0, 1, 0, 0.000000000000039746)"><g clip-path="url(#ac044a2620)"><g clip-path="url(#b67453912d)"><g clip-path="url(#147fc96beb)"><path fill="#b3b8a6" d="M 0 0.789062 L 809.210938 0.789062 L 809.210938 810 L 0 810 Z M 0 0.789062 " fill-opacity="1" fill-rule="nonzero"></path></g></g></g></g></g></g><g clip-path="url(#b9dc6bf562)"><path fill="#ffffff" d="M 144.226562 405.394531 C 144.226562 548.601562 260.582031 665.773438 404.605469 665.773438 C 547.8125 665.773438 664.984375 549.414062 664.984375 405.394531 C 664.984375 262.183594 547.8125 145.015625 404.605469 145.015625 C 261.398438 145.015625 144.226562 262.183594 144.226562 405.394531 Z M 648.710938 405.394531 C 648.710938 539.652344 539.675781 649.5 404.605469 649.5 C 270.347656 649.5 160.5 539.652344 160.5 405.394531 C 160.5 271.136719 270.347656 161.289062 404.605469 161.289062 C 538.863281 161.289062 648.710938 271.136719 648.710938 405.394531 Z M 648.710938 405.394531 " fill-opacity="1" fill-rule="nonzero"></path></g><path fill="#ffffff" d="M 325.679688 372.847656 C 318.355469 365.523438 305.335938 365.523438 298.011719 372.847656 L 280.113281 390.746094 C 272.789062 398.070312 272.789062 411.089844 280.113281 418.414062 L 367.175781 505.476562 C 371.246094 509.546875 376.125 511.171875 381.007812 511.171875 L 381.820312 511.171875 C 387.519531 511.171875 392.398438 509.546875 395.65625 505.476562 L 529.097656 372.03125 C 536.421875 364.710938 536.421875 351.691406 529.097656 344.367188 L 511.199219 326.464844 C 503.875 319.144531 490.855469 319.144531 483.53125 326.464844 L 381.007812 427.363281 Z M 494.109375 337.042969 C 495.738281 335.417969 497.367188 335.417969 498.992188 337.042969 L 516.894531 354.945312 C 518.519531 356.574219 518.519531 358.199219 516.894531 359.828125 L 383.449219 494.085938 C 382.636719 494.898438 381.820312 494.898438 381.007812 494.898438 L 380.195312 494.898438 C 379.382812 494.898438 378.566406 494.898438 377.753906 494.085938 L 291.503906 407.019531 C 289.875 405.394531 289.875 403.765625 291.503906 402.140625 L 309.40625 384.238281 C 310.21875 383.425781 311.03125 383.425781 311.84375 383.425781 C 312.660156 383.425781 313.472656 383.425781 314.285156 384.238281 L 375.3125 445.265625 C 378.566406 448.519531 383.449219 448.519531 386.703125 445.265625 Z M 494.109375 337.042969 " fill-opacity="1" fill-rule="nonzero"></path></svg>