<svg xmlns="http://www.w3.org/2000/svg" xmlns:xlink="http://www.w3.org/1999/xlink" width="500" viewBox="0 0 375 74.999997" height="100" preserveAspectRatio="xMidYMid meet"><defs><g></g><clipPath id="2ec1482b41"><rect x="0" width="234" y="0" height="75"></rect></clipPath></defs><g transform="matrix(1, 0, 0, 1, 71, -0.000000000000001893)"><g clip-path="url(#2ec1482b41)"><g fill="#000000" fill-opacity="1"><g transform="translate(6.733645, 37.760904)"><g><path d="M 14.40625 -15.328125 C 15.664062 -16.304688 17.195312 -16.921875 19 -17.171875 C 20.800781 -17.421875 22.660156 -17.144531 24.578125 -16.34375 C 26.566406 -15.519531 28.171875 -14.296875 29.390625 -12.671875 C 30.609375 -11.054688 31.316406 -9.195312 31.515625 -7.09375 C 31.722656 -4.988281 31.351562 -2.796875 30.40625 -0.515625 C 29.46875 1.734375 28.171875 3.546875 26.515625 4.921875 C 24.867188 6.304688 23.035156 7.148438 21.015625 7.453125 C 18.992188 7.753906 16.988281 7.492188 15 6.671875 C 13.101562 5.878906 11.609375 4.753906 10.515625 3.296875 C 9.429688 1.847656 8.773438 0.328125 8.546875 -1.265625 L 2.4375 13.421875 L -1.28125 11.875 L 12.390625 -20.984375 L 16.109375 -19.4375 Z M 26.625 -2.078125 C 27.320312 -3.765625 27.59375 -5.375 27.4375 -6.90625 C 27.28125 -8.4375 26.757812 -9.765625 25.875 -10.890625 C 24.988281 -12.015625 23.851562 -12.867188 22.46875 -13.453125 C 21.113281 -14.015625 19.722656 -14.203125 18.296875 -14.015625 C 16.867188 -13.828125 15.550781 -13.242188 14.34375 -12.265625 C 13.132812 -11.296875 12.1875 -9.988281 11.5 -8.34375 C 10.789062 -6.65625 10.519531 -5.035156 10.6875 -3.484375 C 10.851562 -1.941406 11.375 -0.601562 12.25 0.53125 C 13.125 1.675781 14.238281 2.53125 15.59375 3.09375 C 16.976562 3.675781 18.382812 3.875 19.8125 3.6875 C 21.238281 3.5 22.550781 2.914062 23.75 1.9375 C 24.945312 0.96875 25.90625 -0.367188 26.625 -2.078125 Z M 26.625 -2.078125 "></path></g></g></g><g fill="#000000" fill-opacity="1"><g transform="translate(35.973889, 49.724341)"><g><path d="M 28 -5.65625 C 27.789062 -4.914062 27.523438 -4.148438 27.203125 -3.359375 L 8.625 -8.578125 C 8.113281 -6.234375 8.394531 -4.21875 9.46875 -2.53125 C 10.539062 -0.851562 12.09375 0.269531 14.125 0.84375 C 15.789062 1.3125 17.289062 1.3125 18.625 0.84375 C 19.96875 0.382812 21.039062 -0.425781 21.84375 -1.59375 L 26.015625 -0.421875 C 24.773438 1.617188 23.019531 3.078125 20.75 3.953125 C 18.488281 4.828125 15.972656 4.878906 13.203125 4.109375 C 10.992188 3.484375 9.160156 2.429688 7.703125 0.953125 C 6.242188 -0.515625 5.273438 -2.296875 4.796875 -4.390625 C 4.328125 -6.492188 4.425781 -8.742188 5.09375 -11.140625 C 5.769531 -13.546875 6.835938 -15.519531 8.296875 -17.0625 C 9.765625 -18.613281 11.503906 -19.628906 13.515625 -20.109375 C 15.535156 -20.597656 17.675781 -20.523438 19.9375 -19.890625 C 22.144531 -19.273438 23.957031 -18.25 25.375 -16.8125 C 26.800781 -15.375 27.738281 -13.679688 28.1875 -11.734375 C 28.644531 -9.796875 28.582031 -7.769531 28 -5.65625 Z M 24.21875 -7.5625 C 24.632812 -9.039062 24.660156 -10.398438 24.296875 -11.640625 C 23.941406 -12.890625 23.285156 -13.945312 22.328125 -14.8125 C 21.367188 -15.675781 20.210938 -16.296875 18.859375 -16.671875 C 16.898438 -17.222656 15.0625 -17.066406 13.34375 -16.203125 C 11.625 -15.335938 10.359375 -13.832031 9.546875 -11.6875 Z M 24.21875 -7.5625 "></path></g></g></g><g fill="#000000" fill-opacity="1"><g transform="translate(63.676991, 57.160975)"><g><path d="M 10.90625 -18.5625 C 11.84375 -19.789062 13.023438 -20.660156 14.453125 -21.171875 C 15.878906 -21.691406 17.519531 -21.78125 19.375 -21.4375 L 18.625 -17.375 L 17.578125 -17.5625 C 13.160156 -18.375 10.515625 -16.378906 9.640625 -11.578125 L 7.28125 1.328125 L 3.328125 0.609375 L 7.65625 -23.140625 L 11.609375 -22.421875 Z M 10.90625 -18.5625 "></path></g></g></g><g fill="#000000" fill-opacity="1"><g transform="translate(80.727324, 60.176455)"><g></g></g></g><g fill="#000000" fill-opacity="1"><g transform="translate(93.686274, 62.091134)"><g><path d="M 2.296875 -12.09375 C 2.367188 -14.550781 2.9375 -16.695312 4 -18.53125 C 5.0625 -20.363281 6.484375 -21.765625 8.265625 -22.734375 C 10.046875 -23.703125 12.007812 -24.148438 14.15625 -24.078125 C 16.257812 -24.003906 18.070312 -23.484375 19.59375 -22.515625 C 21.125 -21.554688 22.242188 -20.378906 22.953125 -18.984375 L 23.109375 -23.390625 L 27.171875 -23.265625 L 26.375 0.859375 L 22.3125 0.734375 L 22.453125 -3.765625 C 21.617188 -2.378906 20.398438 -1.25 18.796875 -0.375 C 17.191406 0.5 15.351562 0.898438 13.28125 0.828125 C 11.144531 0.753906 9.226562 0.160156 7.53125 -0.953125 C 5.832031 -2.066406 4.515625 -3.59375 3.578125 -5.53125 C 2.640625 -7.46875 2.210938 -9.65625 2.296875 -12.09375 Z M 22.703125 -11.375 C 22.765625 -13.1875 22.453125 -14.78125 21.765625 -16.15625 C 21.078125 -17.53125 20.117188 -18.597656 18.890625 -19.359375 C 17.671875 -20.117188 16.316406 -20.519531 14.828125 -20.5625 C 13.328125 -20.613281 11.945312 -20.304688 10.6875 -19.640625 C 9.4375 -18.984375 8.421875 -17.988281 7.640625 -16.65625 C 6.859375 -15.332031 6.441406 -13.765625 6.390625 -11.953125 C 6.328125 -10.097656 6.640625 -8.476562 7.328125 -7.09375 C 8.015625 -5.707031 8.960938 -4.632812 10.171875 -3.875 C 11.390625 -3.113281 12.75 -2.707031 14.25 -2.65625 C 15.738281 -2.613281 17.113281 -2.929688 18.375 -3.609375 C 19.644531 -4.285156 20.671875 -5.289062 21.453125 -6.625 C 22.234375 -7.96875 22.648438 -9.550781 22.703125 -11.375 Z M 22.703125 -11.375 "></path></g></g></g><g fill="#000000" fill-opacity="1"><g transform="translate(125.351486, 63.011374)"><g><path d="M 5.546875 -20.296875 C 6.203125 -21.742188 7.265625 -23 8.734375 -24.0625 C 10.210938 -25.125 11.988281 -25.753906 14.0625 -25.953125 C 16.207031 -26.148438 18.195312 -25.816406 20.03125 -24.953125 C 21.863281 -24.097656 23.359375 -22.789062 24.515625 -21.03125 C 25.679688 -19.269531 26.378906 -17.160156 26.609375 -14.703125 C 26.835938 -12.273438 26.546875 -10.0625 25.734375 -8.0625 C 24.921875 -6.070312 23.691406 -4.46875 22.046875 -3.25 C 20.410156 -2.039062 18.519531 -1.335938 16.375 -1.140625 C 14.332031 -0.953125 12.488281 -1.242188 10.84375 -2.015625 C 9.207031 -2.785156 7.910156 -3.820312 6.953125 -5.125 L 8.4375 10.71875 L 4.4375 11.09375 L 1.125 -24.34375 L 5.125 -24.71875 Z M 22.53125 -14.328125 C 22.363281 -16.140625 21.851562 -17.679688 21 -18.953125 C 20.144531 -20.234375 19.0625 -21.160156 17.75 -21.734375 C 16.445312 -22.316406 15.050781 -22.539062 13.5625 -22.40625 C 12.09375 -22.269531 10.769531 -21.785156 9.59375 -20.953125 C 8.414062 -20.128906 7.519531 -19 6.90625 -17.5625 C 6.300781 -16.132812 6.082031 -14.53125 6.25 -12.75 C 6.414062 -10.925781 6.929688 -9.375 7.796875 -8.09375 C 8.660156 -6.8125 9.75 -5.867188 11.0625 -5.265625 C 12.375 -4.660156 13.765625 -4.425781 15.234375 -4.5625 C 16.722656 -4.695312 18.050781 -5.179688 19.21875 -6.015625 C 20.394531 -6.859375 21.285156 -7.988281 21.890625 -9.40625 C 22.492188 -10.832031 22.707031 -12.472656 22.53125 -14.328125 Z M 22.53125 -14.328125 "></path></g></g></g><g fill="#000000" fill-opacity="1"><g transform="translate(156.401818, 59.705513)"><g><path d="M 3.421875 -21.25 C 3.847656 -22.738281 4.628906 -23.984375 5.765625 -24.984375 C 6.910156 -25.984375 8.40625 -26.660156 10.25 -27.015625 L 11.03125 -22.953125 L 9.984375 -22.75 C 5.578125 -21.894531 3.835938 -19.078125 4.765625 -14.296875 L 7.265625 -1.40625 L 3.328125 -0.640625 L -1.265625 -24.34375 L 2.671875 -25.109375 Z M 3.421875 -21.25 "></path></g></g></g><g fill="#000000" fill-opacity="1"><g transform="translate(173.352335, 56.315794)"><g><path d="M -1.625 -28.546875 C -2.375 -28.359375 -3.0625 -28.453125 -3.6875 -28.828125 C -4.320312 -29.203125 -4.734375 -29.757812 -4.921875 -30.5 C -5.117188 -31.25 -5.03125 -31.941406 -4.65625 -32.578125 C -4.28125 -33.222656 -3.71875 -33.640625 -2.96875 -33.828125 C -2.257812 -34.015625 -1.585938 -33.914062 -0.953125 -33.53125 C -0.328125 -33.144531 0.0820312 -32.578125 0.28125 -31.828125 C 0.46875 -31.085938 0.375 -30.398438 0 -29.765625 C -0.375 -29.140625 -0.914062 -28.734375 -1.625 -28.546875 Z M 1.21875 -25.21875 L 7.171875 -1.828125 L 3.28125 -0.828125 L -2.671875 -24.21875 Z M 1.21875 -25.21875 "></path></g></g></g><g fill="#000000" fill-opacity="1"><g transform="translate(184.702232, 53.488199)"><g><path d="M 0.953125 -21.515625 C 1.203125 -23.023438 1.832031 -24.34375 2.84375 -25.46875 C 3.863281 -26.601562 5.273438 -27.457031 7.078125 -28.03125 L 8.328125 -24.078125 L 7.3125 -23.75 C 3.03125 -22.394531 1.625 -19.394531 3.09375 -14.75 L 7.0625 -2.234375 L 3.234375 -1.03125 L -4.0625 -24.046875 L -0.234375 -25.25 Z M 0.953125 -21.515625 "></path></g></g></g><g fill="#000000" fill-opacity="1"><g transform="translate(201.754627, 48.282318)"><g><path d="M 18.359375 -21.859375 C 18.660156 -21.148438 18.9375 -20.390625 19.1875 -19.578125 L 1.40625 -12.078125 C 2.46875 -9.929688 3.9375 -8.53125 5.8125 -7.875 C 7.695312 -7.226562 9.613281 -7.316406 11.5625 -8.140625 C 13.15625 -8.816406 14.332031 -9.75 15.09375 -10.9375 C 15.851562 -12.132812 16.1875 -13.445312 16.09375 -14.875 L 20.078125 -16.5625 C 20.378906 -14.175781 19.921875 -11.9375 18.703125 -9.84375 C 17.484375 -7.75 15.546875 -6.140625 12.890625 -5.015625 C 10.785156 -4.128906 8.703125 -3.804688 6.640625 -4.046875 C 4.578125 -4.285156 2.703125 -5.078125 1.015625 -6.421875 C -0.671875 -7.773438 -2 -9.597656 -2.96875 -11.890625 C -3.945312 -14.191406 -4.335938 -16.40625 -4.140625 -18.53125 C -3.953125 -20.65625 -3.222656 -22.53125 -1.953125 -24.15625 C -0.679688 -25.789062 1.03125 -27.0625 3.1875 -27.96875 C 5.300781 -28.863281 7.363281 -29.191406 9.375 -28.953125 C 11.382812 -28.722656 13.171875 -27.988281 14.734375 -26.75 C 16.296875 -25.519531 17.503906 -23.890625 18.359375 -21.859375 Z M 14.234375 -21.015625 C 13.640625 -22.429688 12.816406 -23.507812 11.765625 -24.25 C 10.710938 -25 9.539062 -25.410156 8.25 -25.484375 C 6.957031 -25.554688 5.660156 -25.320312 4.359375 -24.78125 C 2.492188 -23.988281 1.15625 -22.722656 0.34375 -20.984375 C -0.46875 -19.242188 -0.519531 -17.273438 0.1875 -15.078125 Z M 14.234375 -21.015625 "></path></g></g></g></g></g></svg>