<?xml version="1.0" encoding="utf-8"?>
<!-- Generator: Adobe Illustrator 30.7.0, SVG Export Plug-In . SVG Version: 9.03 Build 0)  -->
<svg version="1.1" id="Layer_1" xmlns="http://www.w3.org/2000/svg" xmlns:xlink="http://www.w3.org/1999/xlink" x="0px" y="0px"
	 viewBox="0 0 382.2 68.86" style="enable-background:new 0 0 382.2 68.86;" xml:space="preserve">
<path d="M91.52,59.79l-2.21-3.05l-0.16,0.09c-0.3,2.85-2.06,6.23-5.75,8.3c-5.24,2.95-9.99,0.76-12.1-2.98
	c-3.52-6.26,0.12-12.81,10.15-18.38l-0.3-0.54c-1.2-2.14-3.96-5.66-9.25-2.69c-2.4,1.36-4.5,3.51-5.66,5.71l-2.81-2.5
	c1.36-2.59,3.95-5.25,7.21-7.08c7.92-4.45,12.88-0.13,15.8,5.06l5.45,9.68c1.26,2.25,2.6,4.38,3.91,5.97
	C95.8,57.39,91.52,59.79,91.52,59.79z M83.4,46.97c-5.2,2.78-10.52,6.96-7.69,11.99c1.71,3.05,4.56,3.35,6.96,1.99
	c3.37-1.89,4.31-5.23,3.83-7.85c-0.11-0.57-0.31-1.17-0.57-1.65L83.4,46.97L83.4,46.97z"/>
<path d="M95.49,35.92c-1.14-3.63-2.19-6.52-3.15-9.17l4.62-1.46l1.76,4.78l0.12-0.03c1.01-4.12,3.71-7.22,8.33-8.68
	c6.85-2.17,13.83,2,16.55,10.61c3.21,10.19-1.4,17.18-8.07,19.28c-3.74,1.18-7.54,0.58-10.13-1.7l-0.12,0.03l4.86,15.39l-5.09,1.61
	L95.49,35.92L95.49,35.92z M102.96,41.86c0.24,0.76,0.58,1.42,0.9,2.03c2.06,3.27,5.94,4.75,9.62,3.59
	c5.44-1.72,7.2-7.17,5.15-13.66c-1.79-5.68-6.31-9.59-11.76-7.87c-3.51,1.11-5.99,4.66-5.77,8.84c0.03,0.7,0.09,1.52,0.32,2.22
	L102.96,41.86L102.96,41.86z"/>
<path d="M149.93,42.96l-1.05-3.62l-0.18,0.03c-1.24,2.57-4.05,5.16-8.23,5.87c-5.93,1-9.66-2.67-10.37-6.91
	c-1.19-7.08,4.45-12.01,15.78-13.85l-0.1-0.61c-0.41-2.42-1.81-6.67-7.8-5.66c-2.73,0.46-5.43,1.78-7.26,3.46l-1.8-3.31
	c2.16-1.98,5.49-3.6,9.19-4.22c8.96-1.51,12.17,4.25,13.15,10.11l1.84,10.95c0.43,2.54,0.96,5,1.66,6.94L149.93,42.96L149.93,42.96z
	 M146.63,28.15c-5.83,0.85-12.26,2.99-11.3,8.69c0.58,3.45,3.15,4.7,5.88,4.24c3.81-0.64,5.83-3.47,6.26-6.1
	c0.09-0.57,0.11-1.2,0.02-1.75L146.63,28.15L146.63,28.15z"/>
<path d="M160.87,36.03c1.66,0.93,4.56,1.83,7.25,1.64c3.92-0.28,5.62-2.37,5.44-4.82c-0.18-2.57-1.82-3.87-5.9-5.06
	c-5.46-1.52-8.18-4.28-8.43-7.83c-0.34-4.77,3.24-8.97,9.61-9.42c3-0.21,5.69,0.46,7.42,1.32l-1.07,4.02
	c-1.22-0.65-3.43-1.47-6.18-1.28c-3.18,0.23-4.83,2.19-4.67,4.39c0.17,2.45,2.03,3.43,5.99,4.62c5.29,1.59,8.1,3.98,8.41,8.39
	c0.37,5.2-3.41,9.16-10.45,9.67c-3.25,0.23-6.3-0.35-8.47-1.42l1.06-4.19L160.87,36.03z"/>
<path d="M201.81,40.33l-0.37-3.75h-0.19c-1.7,2.3-4.92,4.34-9.16,4.27c-6.02-0.1-9.01-4.38-8.94-8.68
	c0.12-7.18,6.56-11.01,18.04-10.76V20.8c0.05-2.46-0.55-6.89-6.63-6.98c-2.76-0.04-5.66,0.77-7.77,2.08l-1.17-3.58
	c2.48-1.55,6.06-2.54,9.8-2.48c9.08,0.14,11.19,6.39,11.09,12.34l-0.18,11.11c-0.04,2.57,0.04,5.1,0.38,7.13
	C206.72,40.41,201.81,40.33,201.81,40.33z M201.26,25.16c-5.89-0.22-12.6,0.72-12.69,6.49c-0.06,3.5,2.25,5.19,5.01,5.23
	c3.87,0.06,6.36-2.35,7.26-4.85c0.2-0.55,0.32-1.16,0.33-1.71L201.26,25.16L201.26,25.16z"/>
<path d="M242.66,44.81l0.18-3.77L242.66,41c-2.01,2.04-5.5,3.58-9.68,2.89c-5.93-0.97-8.28-5.64-7.59-9.89
	c1.16-7.08,8.1-9.93,19.41-8.01l0.1-0.61c0.4-2.42,0.44-6.89-5.55-7.88c-2.73-0.44-5.71-0.07-7.99,0.93l-0.64-3.71
	c2.68-1.18,6.36-1.63,10.06-1.02c8.96,1.47,10.14,7.95,9.18,13.82l-1.8,10.96c-0.42,2.54-0.7,5.05-0.66,7.1L242.66,44.81
	L242.66,44.81z M244.32,29.72c-5.8-1.07-12.57-1.13-13.5,4.57c-0.56,3.45,1.47,5.46,4.19,5.91c3.82,0.62,6.63-1.4,7.89-3.74
	c0.27-0.51,0.49-1.1,0.58-1.65L244.32,29.72L244.32,29.72z"/>
<path d="M254.59,47.45L262,18.69l5.23,1.35l-7.41,28.76C259.82,48.8,254.59,47.45,254.59,47.45z M269.9,12.1
	c-0.4,1.8-2.07,2.89-4.15,2.35c-1.84-0.48-2.78-2.23-2.33-4.02c0.48-1.84,2.21-2.92,4.11-2.43C269.49,8.5,270.37,10.25,269.9,12.1
	L269.9,12.1z"/>
<path d="M287.69,57.16c-1.58,0.2-4.86,0.03-8.59-1.37c-8.4-3.13-11.74-10.86-8.56-19.38c3.2-8.57,11.38-12.59,20.47-9.21
	c2.99,1.12,5.35,2.85,6.48,4.06l-2.61,3.48c-0.95-1.14-2.61-2.48-5.37-3.51c-6.39-2.38-11.59,1.05-13.76,6.85
	c-2.4,6.44,0.26,11.95,5.78,14.02c2.87,1.07,5.06,1.03,6.73,0.94L287.69,57.16L287.69,57.16z"/>
<path d="M291.52,60.73l14.19-26.1l4.75,2.58l-14.19,26.1C296.27,63.31,291.52,60.73,291.52,60.73z M314.98,30.17
	c-0.83,1.65-2.72,2.29-4.6,1.27c-1.67-0.91-2.16-2.85-1.28-4.47c0.91-1.67,2.86-2.29,4.58-1.36
	C315.46,26.58,315.89,28.49,314.98,30.17z"/>
</svg>
